<svg width="127.344" height="70.755" viewBox="0 0 127.344 70.755" xmlns="http://www.w3.org/2000/svg"><g id="svgGroup" stroke-linecap="round" fill-rule="evenodd" font-size="9pt" stroke="#000" stroke-width="0.25mm" fill="none" style="stroke:#000;stroke-width:0.25mm;fill:none"><path d="M 21.289 70.215 L 14.111 70.215 Q 12.891 70.117 12.305 67.09 L 0.098 3.272 A 32.789 32.789 0 0 1 0.056 2.877 Q 0 2.31 0 2.051 Q 0 0.459 0.471 0.103 A 0.501 0.501 0 0 1 0.781 0 L 7.959 0 A 1.077 1.077 0 0 1 8.785 0.419 Q 9.363 1.084 9.698 2.803 A 15.199 15.199 0 0 1 9.766 3.174 L 18.213 54.297 L 26.416 3.174 A 12.021 12.021 0 0 1 26.628 2.095 Q 27.066 0.341 27.888 0.056 A 1.011 1.011 0 0 1 28.223 0 L 34.131 0 Q 34.863 0 34.863 1.904 A 12.81 12.81 0 0 1 34.854 2.404 Q 34.836 2.858 34.784 3.172 A 3.197 3.197 0 0 1 34.766 3.272 L 23.096 67.09 A 11.795 11.795 0 0 1 22.869 68.122 Q 22.392 69.874 21.549 70.162 A 1.051 1.051 0 0 1 21.289 70.215 Z M 101.318 70.215 L 99.951 70.215 A 0.64 0.64 0 0 1 99.402 69.867 Q 99.051 69.311 98.988 67.864 A 15.618 15.618 0 0 1 98.975 67.188 L 98.975 4.053 A 11.82 11.82 0 0 1 99.015 3.045 Q 99.092 2.146 99.316 1.489 Q 99.658 0.488 100.195 0.488 L 105.615 0.488 A 0.604 0.604 0 0 1 106.034 0.666 Q 106.297 0.911 106.494 1.489 A 5.557 5.557 0 0 1 106.702 2.319 Q 106.836 3.076 106.836 4.053 L 106.836 27.051 Q 106.836 27.593 106.97 27.734 A 0.147 0.147 0 0 0 107.08 27.783 Q 107.324 27.783 107.422 27.441 A 16.475 16.475 0 0 1 108.557 25.091 Q 109.275 23.878 110.143 22.986 A 8.783 8.783 0 0 1 110.962 22.241 A 8.137 8.137 0 0 1 113.226 20.941 A 7.033 7.033 0 0 1 115.674 20.508 A 7.773 7.773 0 0 1 119.971 21.802 A 9.61 9.61 0 0 1 121.666 23.219 Q 122.391 23.971 123.072 24.946 A 18.945 18.945 0 0 1 123.682 25.879 A 14.955 14.955 0 0 1 124.77 28.066 Q 125.726 30.416 126.367 33.765 Q 127.206 38.15 127.324 43.887 A 93.082 93.082 0 0 1 127.344 45.801 Q 127.344 51.697 126.504 56.324 A 40.283 40.283 0 0 1 126.294 57.398 A 35.881 35.881 0 0 1 125.503 60.512 Q 125.07 61.929 124.554 63.103 A 15.19 15.19 0 0 1 123.438 65.21 Q 121.631 68.018 119.507 69.385 A 8.567 8.567 0 0 1 116.854 70.539 A 7.782 7.782 0 0 1 115.039 70.752 Q 107.932 70.752 104.946 62.508 A 25.627 25.627 0 0 1 104.395 60.791 A 1.185 1.185 0 0 0 104.358 60.708 Q 104.279 60.547 104.199 60.547 A 0.125 0.125 0 0 0 104.119 60.632 Q 103.968 60.928 103.733 62.255 A 48.545 48.545 0 0 0 103.613 62.964 Q 103.223 65.381 102.612 67.798 Q 102.155 69.607 101.657 70.062 A 0.505 0.505 0 0 1 101.318 70.215 Z M 66.162 57.617 L 66.162 58.398 A 16.408 16.408 0 0 1 65.697 62.407 A 11.961 11.961 0 0 1 63.232 67.285 A 9.364 9.364 0 0 1 58.317 70.304 Q 56.612 70.752 54.541 70.752 A 17.861 17.861 0 0 1 52.083 70.59 A 14.223 14.223 0 0 1 50.342 70.239 Q 48.438 69.727 46.387 68.115 A 12.276 12.276 0 0 1 43.968 65.548 A 15.563 15.563 0 0 1 42.92 63.843 Q 41.504 61.182 40.601 56.519 A 45.868 45.868 0 0 1 39.983 52.135 Q 39.769 49.875 39.715 47.332 A 81.945 81.945 0 0 1 39.697 45.606 A 76.314 76.314 0 0 1 39.854 40.582 Q 40.015 38.15 40.341 36.026 A 41.221 41.221 0 0 1 40.576 34.644 A 43.743 43.743 0 0 1 41.173 31.925 Q 41.882 29.149 42.822 27.319 A 14.75 14.75 0 0 1 44.342 24.927 A 11.433 11.433 0 0 1 46.167 23.071 A 14.285 14.285 0 0 1 47.626 22.036 Q 48.43 21.542 49.203 21.243 A 7.456 7.456 0 0 1 49.951 20.996 A 13.904 13.904 0 0 1 52.234 20.588 A 17.773 17.773 0 0 1 53.955 20.508 Q 65.618 20.508 66.483 40.678 A 78.535 78.535 0 0 1 66.553 44.043 Q 66.553 46.633 65.852 47.26 A 0.756 0.756 0 0 1 65.332 47.461 L 48.34 47.461 A 0.255 0.255 0 0 0 48.122 47.599 Q 47.98 47.822 47.955 48.407 A 6.337 6.337 0 0 0 47.949 48.682 A 51.988 51.988 0 0 0 48.135 52.887 Q 48.492 56.934 49.526 59.605 A 13.811 13.811 0 0 0 49.731 60.107 Q 50.761 62.486 52.351 63.452 A 4.597 4.597 0 0 0 54.785 64.111 A 5.879 5.879 0 0 0 56.032 63.986 A 4.223 4.223 0 0 0 57.495 63.379 Q 58.594 62.647 59.131 61.231 Q 59.668 59.814 59.888 58.765 Q 60.039 58.043 60.155 57.079 A 34.937 34.937 0 0 0 60.254 56.152 A 2.607 2.607 0 0 1 60.336 55.76 Q 60.539 55.078 61.084 55.078 L 65.039 55.078 A 0.85 0.85 0 0 1 65.807 55.564 Q 66.048 55.989 66.126 56.785 A 8.659 8.659 0 0 1 66.162 57.617 Z M 81.445 70.215 L 75.977 70.215 A 0.637 0.637 0 0 1 75.537 70.031 Q 75.331 69.842 75.166 69.459 A 3.439 3.439 0 0 1 75.098 69.287 A 4.778 4.778 0 0 1 74.891 68.518 Q 74.816 68.118 74.783 67.648 A 11.356 11.356 0 0 1 74.756 66.846 L 74.756 24.854 Q 74.756 21.094 75.684 21.094 L 77.539 21.094 Q 78.01 21.094 78.293 21.638 A 2.066 2.066 0 0 1 78.369 21.802 Q 78.662 22.51 79.004 24.219 L 80.127 30.859 A 3.445 3.445 0 0 0 80.167 31.099 Q 80.239 31.45 80.362 31.551 A 0.165 0.165 0 0 0 80.469 31.592 A 0.133 0.133 0 0 0 80.571 31.534 Q 80.663 31.422 80.725 31.091 A 4.337 4.337 0 0 0 80.762 30.859 Q 82.227 25.684 84.277 23.193 A 10.062 10.062 0 0 1 85.475 21.954 Q 86.173 21.354 86.887 21.021 A 4.294 4.294 0 0 1 88.525 20.606 L 89.307 20.606 A 3.958 3.958 0 0 1 89.89 20.645 Q 90.608 20.753 90.947 21.151 A 1.139 1.139 0 0 1 91.016 21.24 Q 91.416 21.818 91.452 23.002 A 7.91 7.91 0 0 1 91.455 23.242 L 91.455 28.125 A 11.029 11.029 0 0 1 91.446 28.598 Q 91.417 29.274 91.297 29.563 A 0.673 0.673 0 0 1 91.26 29.639 Q 91.065 29.981 90.576 29.981 A 18.546 18.546 0 0 0 89.719 29.999 Q 88.538 30.054 87.988 30.273 A 4.412 4.412 0 0 0 85.868 31.695 Q 84.788 32.95 84.077 35.194 A 17.633 17.633 0 0 0 83.984 35.498 Q 82.666 39.941 82.666 44.873 L 82.666 66.846 Q 82.666 68.359 82.324 69.287 Q 82.074 69.967 81.718 70.149 A 0.592 0.592 0 0 1 81.445 70.215 Z M 113.379 64.111 Q 119.19 64.111 119.19 45.264 A 78.3 78.3 0 0 0 119.052 40.454 Q 118.726 35.173 117.627 31.86 Q 116.485 28.415 114.716 27.489 A 2.944 2.944 0 0 0 113.33 27.148 Q 110.498 27.148 108.667 32.153 A 26.032 26.032 0 0 0 107.552 36.34 Q 107.149 38.509 106.973 41.061 A 61.147 61.147 0 0 0 106.836 45.264 Q 106.836 53.369 108.667 58.74 A 18.154 18.154 0 0 0 109.454 60.701 Q 110.43 62.744 111.646 63.563 A 3.047 3.047 0 0 0 113.379 64.111 Z M 48.193 42.285 L 59.375 42.285 A 0.051 0.051 0 0 0 59.408 42.242 Q 59.472 42.058 59.473 41.077 A 29.643 29.643 0 0 0 59.473 41.064 A 57.792 57.792 0 0 0 59.197 36.677 Q 58.468 29.73 56.013 27.822 A 3.344 3.344 0 0 0 53.906 27.1 A 3.609 3.609 0 0 0 51.431 28.1 Q 50.895 28.583 50.419 29.299 A 9.715 9.715 0 0 0 49.902 30.176 A 11.987 11.987 0 0 0 49.043 32.377 Q 48.202 35.26 47.998 39.844 A 50.241 50.241 0 0 0 48.001 40.416 Q 48.021 42.182 48.175 42.279 A 0.034 0.034 0 0 0 48.193 42.285 Z" vector-effect="non-scaling-stroke"/></g></svg>